<?xml version="1.0" standalone="no"?>
<!DOCTYPE svg PUBLIC "-//W3C//DTD SVG 20010904//EN"
 "http://www.w3.org/TR/2001/REC-SVG-20010904/DTD/svg10.dtd">
<svg version="1.0" xmlns="http://www.w3.org/2000/svg"
 width="1000.000000pt" height="1000.000000pt" viewBox="0 0 1000.000000 1000.000000"
 preserveAspectRatio="xMidYMid meet">
<metadata>
Created by potrace 1.14, written by Peter Selinger 2001-2017
</metadata>
<g transform="translate(0.000000,1000.000000) scale(0.100000,-0.100000)"
fill="#000000" stroke="none">
<path d="M4635 9509 c-605 -56 -1113 -197 -1632 -453 -653 -323 -1190 -769
-1627 -1353 -166 -221 -281 -408 -412 -668 -251 -499 -393 -973 -460 -1535
-34 -294 -29 -770 12 -1088 85 -658 322 -1305 682 -1862 490 -759 1199 -1355
2037 -1715 395 -169 818 -280 1265 -330 185 -20 242 -18 115 5 -386 69 -725
222 -1030 464 -425 339 -720 837 -816 1381 -27 151 -37 474 -20 626 57 502
274 964 620 1323 283 292 595 482 984 600 217 66 331 83 627 96 238 10 388 27
529 60 425 101 785 303 1091 610 189 189 310 360 431 605 313 639 306 1378
-21 2012 -125 241 -260 425 -445 601 -342 326 -726 518 -1210 604 -128 22
-553 33 -720 17z m555 -1564 c197 -61 361 -200 445 -376 51 -109 68 -187 68
-309 1 -321 -197 -584 -513 -681 -107 -33 -274 -33 -380 0 -316 98 -514 360
-513 681 0 165 47 304 146 436 94 124 251 223 411 260 79 18 261 12 336 -11z"/>
<path d="M4810 3416 c-310 -93 -510 -358 -510 -676 0 -199 63 -353 200 -490
128 -128 247 -188 419 -211 141 -19 310 17 439 93 91 53 220 189 265 278 157
315 69 699 -206 894 -141 99 -255 136 -422 135 -84 0 -128 -5 -185 -23z"/>
</g>
</svg>
